# xmcd
#
# Track frame offsets: 
#        150
#        14251
#        28786
#        41527
#        54597
#        68957
#        82868
#        94016
#        107741
#        122387
#        138467
#        151537
#        166040
#        180258
#        192855
#        208409
#        223553
#        237454
#        248477
#        262304
#        276432
#        289477
#        300310
#        313096
#        327573
#        341049
#        354700
#
# Disc length: 4745 seconds
#
# Revision: 1
# Processed by: cddbd v1.5.2PL0 Copyright (c) Steve Scherf et al.
# Submitted via: ExactAudioCopy v0.95b3
#
DISCID=8d12871b
DTITLE=Various Artist - XXXL 16 Максимальный
DYEAR=2006
DGENRE=Pop
TTITLE0=XXX - Против Аварии
TTITLE1=Виа Гра - Цветок и Нож
TTITLE2=Глюкоза - Сашок
TTITLE3=Reflex - Научи Любить
TTITLE4=Валерия - От Разлуки до Любви
TTITLE5=Дима Билан - Невозможное Возможно
TTITLE6=гр. Чи-Ли - Маки
TTITLE7=Лигалайз - Жизнь
TTITLE8=Бандэрос - Коламбия Пикчерз не Представляет
TTITLE9=Юлия Савичева - Мало
TTITLE10=МакSим - Нежность
TTITLE11=Иракли - Ну и Что
TTITLE12=Звери - Танцуй
TTITLE13=София Ротару - Не люби
TTITLE14=Чай Вдвоём - Прости
TTITLE15=Блестящие - Агент 007
TTITLE16=Сергей Жуков - Капают Слёзы
TTITLE17=Mr. Credo - К.Л.Е.Н.
TTITLE18=Фактор-2 - Осталась Одна
TTITLE19=Не Пара - Где ты Была (Я Смотрела)
TTITLE20=Согдиана - Сердце Магнит
TTITLE21=Сказка - Куришь в Окошко
TTITLE22=Виктория Дайнеко - Я Просто от Тебя Уйду
TTITLE23=Леонид Агутин и Владимир Пресняков - Аэропорты
TTITLE24=Баста - Мама
TTITLE25=Елена Терлеева - Солнце
TTITLE26=27 - Трек 27
EXTD=
EXTT0=
EXTT1=
EXTT2=
EXTT3=
EXTT4=
EXTT5=
EXTT6=
EXTT7=
EXTT8=
EXTT9=
EXTT10=
EXTT11=
EXTT12=
EXTT13=
EXTT14=
EXTT15=
EXTT16=
EXTT17=
EXTT18=
EXTT19=
EXTT20=
EXTT21=
EXTT22=
EXTT23=
EXTT24=
EXTT25=
EXTT26=
PLAYORDER=
